<svg xmlns="http://www.w3.org/2000/svg" viewBox="0 0 28 28">
  <defs>
    <style>
      .cls-1 {
        fill: #fff;
      }

      .cls-2 {
        fill: none;
      }

      .cls-3 {
        fill: #ffc001;
      }
    </style>
  </defs>
  <g id="グループ化_524" data-name="グループ化 524" transform="translate(-434 -1008)">
    <circle id="楕円形_56" data-name="楕円形 56" class="cls-1" cx="14" cy="14" r="14" transform="translate(434 1008)"/>
    <g id="グループ化_526" data-name="グループ化 526" transform="translate(436.845 1010.276)">
      <g id="グループ化_520" data-name="グループ化 520" transform="translate(0.075 0)">
        <path id="パス_381" data-name="パス 381" class="cls-2" d="M14.71,4.082l9.113,15.773a1.112,1.112,0,0,1-.968,1.665H4.652a1.112,1.112,0,0,1-.968-1.665l9.09-15.773A1.119,1.119,0,0,1,14.71,4.082Z" transform="translate(-2.756 -2.732)"/>
        <path id="パス_382" data-name="パス 382" class="cls-3" d="M20.173,19.575H1.971A1.872,1.872,0,0,1,.328,18.63a1.933,1.933,0,0,1,0-1.913L9.418.945A1.9,1.9,0,0,1,11.061,0,1.872,1.872,0,0,1,12.7.945h0l9.113,15.773a1.933,1.933,0,0,1,0,1.913A1.9,1.9,0,0,1,20.173,19.575Zm-9.113-18a.35.35,0,0,0-.293.158L1.678,17.505a.3.3,0,0,0,0,.338A.359.359,0,0,0,1.971,18h18.2a.4.4,0,0,0,.293-.158.3.3,0,0,0,0-.338L11.353,1.733A.35.35,0,0,0,11.061,1.575Z" transform="translate(-0.075 0)"/>
      </g>
      <g id="グループ化_521" data-name="グループ化 521" transform="translate(9.778 6.098)">
        <path id="パス_383" data-name="パス 383" class="cls-3" d="M44.618,34.548h-.27c-.45,0-.81-.5-.81-1.08L43.2,28.18a1.08,1.08,0,0,1,1.08-1.08h.383a1.08,1.08,0,0,1,1.08,1.08l-.338,5.288A.949.949,0,0,1,44.618,34.548Z" transform="translate(-43.2 -27.1)"/>
        <path id="パス_384" data-name="パス 384" class="cls-3" d="M46.15,65.125A1.125,1.125,0,1,1,45.025,64,1.128,1.128,0,0,1,46.15,65.125Z" transform="translate(-43.742 -55.697)"/>
      </g>
    </g>
  </g>
</svg>
