<svg xmlns="http://www.w3.org/2000/svg" viewBox="0 0 28 28">
  <defs>
    <style>
      .cls-1 {
        fill: #fff;
      }

      .cls-2 {
        fill: #2ea664;
        fill-rule: evenodd;
      }
    </style>
  </defs>
  <g id="グループ化_642" data-name="グループ化 642" transform="translate(-434 -1008)">
    <circle id="楕円形_56" data-name="楕円形 56" class="cls-1" cx="14" cy="14" r="14" transform="translate(434 1008)"/>
    <path id="パス_396" data-name="パス 396" class="cls-2" d="M10.7,16H9.8a.43.43,0,0,1-.4-.4V7.8a.43.43,0,0,1,.4-.4h.8a.43.43,0,0,1,.4.4v7.8c.1.2-.1.4-.3.4ZM3,3a10.05,10.05,0,0,0-3,7.2,9.881,9.881,0,0,0,3,7.2,10.05,10.05,0,0,0,7.2,3,9.881,9.881,0,0,0,7.2-3,10.05,10.05,0,0,0,3-7.2,9.881,9.881,0,0,0-3-7.2A10.14,10.14,0,0,0,3,3ZM4.2,16.3a8.454,8.454,0,0,0,6.1,2.5,8.879,8.879,0,0,0,6.1-2.5,8.454,8.454,0,0,0,2.5-6.1,8.879,8.879,0,0,0-2.5-6.1,8.454,8.454,0,0,0-6.1-2.5A8.879,8.879,0,0,0,4.2,4.1a8.454,8.454,0,0,0-2.5,6.1,7.923,7.923,0,0,0,2.5,6.1ZM9.4,4.5a1.234,1.234,0,0,1,.8-.4,1.234,1.234,0,0,1,.8.4,1.234,1.234,0,0,1,.4.8,1.234,1.234,0,0,1-.4.8h0a1.234,1.234,0,0,1-.8.4,1.234,1.234,0,0,1-.8-.4A1.234,1.234,0,0,1,9,5.3a1.969,1.969,0,0,1,.4-.8Z" transform="translate(438 1012)"/>
  </g>
</svg>
