<svg xmlns="http://www.w3.org/2000/svg" viewBox="0 0 344 204"><defs><style>.cls-1{fill:#a3a3a3;}.cls-2{fill:#fff;}</style></defs><title>file_undefined</title><g id="レイヤー_2" data-name="レイヤー 2"><g id="レイヤー_1-2" data-name="レイヤー 1"><rect class="cls-1" width="344" height="204"/><path class="cls-2" d="M221.77,73.9a3.52,3.52,0,0,0-3.46-3.6H138.74a3.53,3.53,0,0,0-3.61,3.46v57.87a3.53,3.53,0,0,0,3.46,3.61H190.7a6.68,6.68,0,0,0,4.2-1.48c-.05.05,25.75-26.7,25.87-26.88a6.83,6.83,0,0,0,1.09-3.64Zm-26.65,49.45V110h12.62ZM142.35,77.51h72.2v25.26h-23a3.54,3.54,0,0,0-3.61,3.46V128H142.35Z"/><path class="cls-1" d="M132.27,152.5a10.13,10.13,0,0,1-7.34-17.1l76.83-80.76a10.13,10.13,0,0,1,14.67,14L139.6,149.36A10.09,10.09,0,0,1,132.27,152.5Z"/><path class="cls-2" d="M132.27,146a3.6,3.6,0,0,1-2.61-6.07L206.5,59.15a3.59,3.59,0,1,1,5.2,4.95l-76.83,80.75A3.55,3.55,0,0,1,132.27,146Z"/></g></g></svg>