<svg xmlns="http://www.w3.org/2000/svg" viewBox="0 0 28 28">
  <defs>
    <style>
      .cls-1 {
        fill: #fff;
      }

      .cls-2 {
        fill: #46cad9;
        fill-rule: evenodd;
      }
    </style>
  </defs>
  <g id="グループ化_519" data-name="グループ化 519" transform="translate(-434 -1008)">
    <circle id="楕円形_56" data-name="楕円形 56" class="cls-1" cx="14" cy="14" r="14" transform="translate(434 1008)"/>
    <path id="パス_456" data-name="パス 456" class="cls-2" d="M11.886,4.622a7.014,7.014,0,0,1,7.044,7.044,6.368,6.368,0,0,1-.734,3.082,7.588,7.588,0,0,1-1.761,2.275V18.49a1.914,1.914,0,0,1-.514,1.247,1.6,1.6,0,0,1-.367.293v1.1a1.731,1.731,0,0,1-.514,1.174,1.666,1.666,0,0,1-1.174.44h-.22v1.467a.631.631,0,0,1-.587.587H10.566a.631.631,0,0,1-.587-.587V22.746h-.22a1.666,1.666,0,0,1-1.174-.44,1.731,1.731,0,0,1-.514-1.174v-1.1a1.288,1.288,0,0,1-.367-.293h0a1.77,1.77,0,0,1-.514-1.247V17.022A7.588,7.588,0,0,1,5.43,14.748,7.322,7.322,0,0,1,4.7,11.666,7.037,7.037,0,0,1,6.75,6.677a7.669,7.669,0,0,1,5.136-2.054ZM5.87,4.916,4.4,3.449a.571.571,0,1,0-.807.807L5.063,5.723a.571.571,0,1,0,.807-.807Zm12.767.807L20.1,4.256a.571.571,0,1,0-.807-.807L17.83,4.916a.571.571,0,0,0,.807.807ZM2.788,11.079a.587.587,0,1,1,0,1.174H.587a.587.587,0,1,1,0-1.174Zm18.123,1.174a.587.587,0,1,1,0-1.174h2.2a.587.587,0,0,1,0,1.174ZM12.4,2.641a.587.587,0,1,1-1.174,0V.587a.587.587,0,1,1,1.174,0V2.641Zm.88,9.612v-.367a.587.587,0,1,1,1.174,0v.954h0v6.237h.293a1.043,1.043,0,0,0,.44-.147.62.62,0,0,0,.147-.44V16.729a.523.523,0,0,1,.22-.44,6.273,6.273,0,0,0,1.614-2.054,6,6,0,0,0,.587-2.568A5.915,5.915,0,0,0,7.631,7.484,5.883,5.883,0,0,0,5.87,11.666a6,6,0,0,0,.587,2.568,6.273,6.273,0,0,0,1.614,2.054.523.523,0,0,1,.22.44V18.49a1.043,1.043,0,0,0,.147.44h0a.62.62,0,0,0,.44.147h.293V12.84h0v-.954a.587.587,0,0,1,1.174,0v.367h.88v-.367a.587.587,0,0,1,1.174,0v.367Zm-.88,1.541a.587.587,0,0,1-1.174,0v-.367h-.88v5.65H13.28v-5.65H12.4v.367Zm.147,8.951H11.226v.88h1.321v-.88ZM14.454,20.4H9.245v.734c0,.147.073.22.147.367a.787.787,0,0,0,.44.147h3.962a1.043,1.043,0,0,0,.44-.147.56.56,0,0,0,.147-.367V20.4Z" transform="translate(436 1010)"/>
  </g>
</svg>
